<svg id="Layer_1" data-name="Layer 1" xmlns="http://www.w3.org/2000/svg" xmlns:xlink="http://www.w3.org/1999/xlink" viewBox="0 0 2400 1400"><defs><style>.cls-1{fill:url(#linear-gradient);}.cls-2{fill:#fff;}.cls-3{fill:none;stroke:#fff;stroke-miterlimit:10;stroke-width:66px;}.cls-4{fill:url(#linear-gradient-2);}</style><linearGradient id="linear-gradient" x1="732.25" y1="32.25" x2="1667.75" y2="967.75" gradientUnits="userSpaceOnUse"><stop offset="0" stop-color="#5fbf8a"/><stop offset="1" stop-color="#3a825d"/></linearGradient><linearGradient id="linear-gradient-2" x1="576.66" y1="609.79" x2="1881.88" y2="1915.01" xlink:href="#linear-gradient"/></defs><rect class="cls-1" x="700" width="1000" height="1000" rx="110.11"/><rect class="cls-2" x="725.49" y="421.25" width="949.03" height="157.51" rx="78.75" transform="translate(-2.08 994.97) rotate(-45)"/><circle class="cls-3" cx="1000" cy="300" r="100"/><circle class="cls-3" cx="1400" cy="700" r="100"/><path class="cls-4" d="M249.9,1369q-36.37,30.18-97.31,30.18-6.21,0-43.43-4.79-24.82-3.1-51.62-32.16-24-26.22-40.76-62.33T0,1238.38q0-50.48,34-85.88t84.19-35.4q40,0,71.08,21.72,25.67,17.49,51.33,55l-29.05,23.41a5.94,5.94,0,0,0,5.64.56l32.44,33.85,1.41,12.69Zm-36.66-36.1V1223.15H124.39v38.93h7.33q12.41,0,18.9,2.53v41.47l-4.51,1.4q-74.76,0-74.75-72.77,0-24.53,12.13-43.15,13.82-21.43,37.23-21.44,27.93,0,46.82,26.24l40.9-33q-15.51-19.47-40.33-30.47a118.61,118.61,0,0,0-49.36-10.72q-49.36,0-81.52,34T5.08,1239.79q0,54.43,35.25,86.59Q74.46,1358,129.18,1358,172.33,1358,213.24,1332.87Zm-107.19-74.75q0-6.76-11.28-18.61-8.74-7.89-17.2-16.08a37.6,37.6,0,0,0-.85,5.36c0,3.2.18,5.18.56,5.92q3.39,5.93,13.26,16.36,14.94,15.53,15.23,16.08T106.05,1258.12ZM123.54,1301q-4.52-4.23-9.59-13.26-6.49-11-8.74-14.1-9.6-10.44-27.93-31.31,0,4,.29,7.9c0,3.38.65,6,2,7.89q3.94,5.94,18,21.87t19.18,19.88C118.27,1300.06,120.53,1300.43,123.54,1301Zm-17.2-66.85-24-27.36q-1.12,3.11-3.1,9l25.95,28.48ZM121.85,1391q-7.62-7.6-21.16-23.69a29.85,29.85,0,0,0-3.66-5.64q-1.69-1.12-7.62-2t-8.18-2.26q.57.55,17.21,20.31,11.57,13.82,19.74,13.82A13.31,13.31,0,0,0,121.85,1391Zm-10.16-173.74-22.84-24a82,82,0,0,0-4.52,8.18l23.7,27.36Zm7.34-10.44-21.16-23.41a23,23,0,0,0-4.79,6.49l22,22.85C116,1211.4,117.34,1209.43,119,1206.79Zm11.56-9.31-19.74-20.87c-1.51.75-4,2.17-7.62,4.23l20.59,22Zm11,195.75q-9-11.85-26.23-29.9-1.69-1.41-7.33-1.41h-4.52q7.33,9,14.67,18.34,11.56,13.53,15.8,13.53a25.47,25.47,0,0,0,3.66-.42A11.59,11.59,0,0,1,141.59,1393.23ZM171.21,1217q-3.39-6.78-11.71-12t-15.65-5.22q-15.79,0-25.39,19.46a74.15,74.15,0,0,0-7.89,33.57q0,14.1,7.33,30.18,8.46,19.18,20.31,19.18h7.33v-6.49q-.84-1.41-15.79-16.64Q119,1268.27,119,1260.38q0-36.37-.28-23.13.27-16.63,4.23-20.3Zm-27.08-22.29q-4.51-5.92-9.31-11.84-6.49-7.62-11.56-7.62a21.16,21.16,0,0,0-2.68.28,19.56,19.56,0,0,1-2.68.28q2.82,1.42,10.15,11.57,6.21,8.46,12.13,8.46a9.27,9.27,0,0,0,1.84-.56A7.61,7.61,0,0,1,144.13,1194.66Zm15.23,199.42-27.64-31h-9q8.73,10.42,26.79,30.74a19.08,19.08,0,0,0,3.67.29Zm-13.82-106.34V1268l-13,.28c-.19,0-1.6-.09-4.23-.28Zm30.18,104.08q-7.33-8.19-14.38-16.36-12.14-13.55-13.83-13.54a19.07,19.07,0,0,0-3.66.57,19.75,19.75,0,0,1-3.67.56,126.21,126.21,0,0,0,12.69,15.51q13.26,14.67,13.54,14.67Q169.52,1392.66,175.72,1391.82ZM191,1389q-25.66-29.34-28.2-29.33c-.19,0-2.64.46-7.34,1.4q26.52,29.34,28.21,29.34C182.86,1390.41,185.31,1389.94,191,1389Zm4.8-172-19.18-21.16a13.81,13.81,0,0,1-4.8,4.23c-2.44,1.51-4,2.92-4.51,4.23q4.8,1.7,9.59,12.7Zm9.87,167.82-26-29a51.51,51.51,0,0,1-8.74,2.25q8.46,9.58,25.66,28.77A75.63,75.63,0,0,0,205.62,1384.77ZM210.7,1211l-22.29-24.25-7.89,5.92,22.28,25.1Zm7.89,168.67-25.38-28.49a53.52,53.52,0,0,0-7.9,2.82q25.66,28.77,26.51,28.77C211.64,1382.79,213.89,1381.76,218.59,1379.69ZM222,1203.13,199.7,1178c-1.32.76-2.73,1.55-4.23,2.4s-2.26,1.83-2.26,3v.56l22.28,24C217,1206.79,219.16,1205.2,222,1203.13Zm8.74,171.77q-23.13-29.62-25.38-29.62c-.57,0-3,1.13-7.34,3.39q26,28.75,27.08,28.76Zm3.95-182.21-22.56-26a108.27,108.27,0,0,0-7.62,7.9q20.87,24,22,24,1.69,0,4.65-2.82A29.72,29.72,0,0,1,234.67,1192.69ZM242,1369l-26.79-30.46c-1.13.94-2.92,2.45-5.36,4.51l26.51,28.77Q238.34,1370.67,242,1369Zm3.95-18.61q.28-4.23-27.07-31.59-.85,5.64-.85,5.92,0,10.15,10.15,21.16,8.46,9,16.93,17.76Zm0-45.13q0-1.7-12.41-15-7.6-7.62-14.95-15.51v2.82q0,9,3.67,14.1l10.44,10.44q6.2,6.48,12.41,14.1Q246,1306.65,246,1305.23Zm.28,28.77q0-8.74-10.43-20-16.37-17.76-16.36-18a36.33,36.33,0,0,0-.85,5.92q0,9,10.44,20,8.46,8.46,16.64,16.92A19.47,19.47,0,0,0,246.23,1334Zm-.28-61.77v-16.08L219.16,1226v17.21Zm.28,16.92a20.9,20.9,0,0,0-4.79-13.54q0-.27-10.44-10.15a132.5,132.5,0,0,1-11.84-13.54v14.67q0,.57,12.13,13.25t14.38,14.67A27.07,27.07,0,0,0,246.23,1289.15Zm270.78,108-13,2-70.79-.56q-14.39-16.65-28.49-33.28-16.65-20-24.26-36.11-1.12,1.14-2,68.26l-5.92,1.69H301.52l-34.69-41.46,1.41-239.46,3.38-1.13H404.19q32.43,0,67,37t34.55,69.38a79.94,79.94,0,0,1-13.4,44.71,75.61,75.61,0,0,1-36,29.47Zm-42.87-42-51.06-82.08q27.09-19.72,35.26-29.61Q473,1225.69,473,1200.3q0-47.38-37.8-66.56-28.48-14.67-82.64-14.67-15.79,0-42.87,1.41t-36.95,1.41l-1.13,233.26h68.26q0-57.26,1.13-73.05l5.35-1.13,9.6.85,46,73.33Zm-160.21,38.64-28.77-33.28a20.43,20.43,0,0,1-3.1-.42,21,21,0,0,0-3.67-.42c-.75,0-1.6.56-2.54,1.69l27.93,32.43Zm19.18,0-29.62-33.28h-11l28.21,33.28Zm19.46-.28q-7.9-9.59-15.8-18.89-12.69-14.38-16.64-14.39a33.42,33.42,0,0,0-8.74,1.13l29.05,32.43A88.14,88.14,0,0,1,352.57,1393.51Zm16.36.28q-1.12-2-13.82-17.06t-13.68-15.51a7.74,7.74,0,0,0-3-.43,32.7,32.7,0,0,0-6.77.85q9.3,10.42,27.36,31.87h4.79C365.92,1393.7,367.61,1393.79,368.93,1393.79ZM403.06,1204a27.22,27.22,0,0,1-7.9,19.32q-7.91,8.32-18.61,8.32h-34.7v-53.87c0-.94,1-1.41,3.11-1.41h22Q403,1176.33,403.06,1204Zm-33.85,110q-4.8-7.6-9.59-15.23-7.62-12.12-10.43-12.13a14.06,14.06,0,0,0-3.39.85Zm5.08,25.67v-11l-28.49-33.85v11.85Zm0,23.13v-14.1l-28.49-33v15.23Q345.8,1334.28,374.29,1362.77Zm0,27.36v-17.77l-28.49-33v17.2Zm.85-167.54v-10.44l-28.49-27.08v15.52l27.64,25.1a4.29,4.29,0,0,1,.42-1.55A4.35,4.35,0,0,0,375.14,1222.59Zm-10.44,4.23a52.72,52.72,0,0,0-8.46-9.87l-9.59-9v18.9Zm29.62-17.77L367,1181.69H351.44q8.74,8.74,17.21,17.77,10.43,9.87,20.59,9.59Zm3.1-5.92v-2.83q0-5.35-6.77-12t-12.13-6.63h-3.38Zm-2.26,11H381.34v11.29A25.87,25.87,0,0,0,395.16,1214.12Zm52.75,180-28.21-33.57H408.14q.27.29,15.79,20.59,10.71,13.82,19.46,13.82A12.9,12.9,0,0,0,447.91,1394.08Zm18.61-.57q-8.17-9.59-16.36-18.89-13-14.11-17.2-14.11a41,41,0,0,0-5.93.85l27.36,33Q464,1393.24,466.52,1393.51Zm-5.36-104.92L442.55,1268l-4.52,2c-1.88.94-3,2-3.38,3.1a35.42,35.42,0,0,1,6.2,6.77q2.55,3.67,5.36,7.62,3.68,5.07,7.05,5.08T461.16,1288.59Zm23.41,105.2q-26.51-33.29-30.18-33.28a15.84,15.84,0,0,0-3.1.42,15.34,15.34,0,0,1-3.1.43,4.13,4.13,0,0,1-2.54-.85l27.64,33.28Zm-9.87-113.38-21.15-22-6.77,6.48L466,1286.33Zm9.59-10.44q-18.62-21.43-20.31-21.44-2.53,0-5.64,6.49l20,21.72A44.69,44.69,0,0,0,484.29,1270Zm21.44,123.82q-9.89-13.26-26.8-32.43a6.78,6.78,0,0,0-3.95-.85H464.26l27.65,33.28Zm-13.26-137.64q-10.73-14.39-20.59-22.28l-4.79,9,20.59,22.57Zm-3.67-74.46L473,1164.2l-.28.28L488.24,1182Zm9.59,58.67L477.8,1217Q475,1222,475,1224.56q0,5.37,8.18,13.54,11,11.28,11.85,12.69Q496.14,1247.13,498.39,1240.36Zm1.41-29.9a65.22,65.22,0,0,0-3.1-12.41q-6.21-9-20.31-20.59,0,7.89,8.75,17.77Zm1.41,15.23q0-6.76-8.17-15.23-12.42-13-12.7-13.54l-1.41,12.41q0,1.7,20.87,24A44.6,44.6,0,0,0,501.21,1225.69Zm302.65,170.08-3.38,2.54H721.22Q710.78,1387,700.35,1376q-14.11-15.8-17.77-22.84H653q-3.68,14.65-12.13,43.15l-3.38,2.82c-3.39-.19-7.05-.28-11-.28q-7.07,0-21.3.57t-21.29.56a131.71,131.71,0,0,1-26.52-2.26q-4.23-3.95-35.82-39.2l64-241.16H702.88Q720.09,1134,740.12,1156q11.55,24,33.56,114.23Q788.64,1332.88,803.86,1395.77Zm-45.41-40.33-60.64-233.27-108.88,1.13q-10.44,46.26-29.61,116.77Q530.82,1345,528,1356.28h70.51q2.55-11.28,5.08-22.56a140.55,140.55,0,0,1,6.77-22l64.87-.28,3.39,1.69q2.25,6.21,11.28,42.31Zm-187.57,37.23q-8.18-9-16.36-17.77-12.69-13.26-17.48-13.26a28,28,0,0,0-6.21.85q28.49,30.73,30.18,30.74a40.87,40.87,0,0,0,5.08-.56A19.77,19.77,0,0,1,570.88,1392.67Zm20.59.28q-7.05-7.9-13.82-15.8-8.46-9.87-14.95-14.66a6.78,6.78,0,0,0-4-.85c-.94,0-2.35.09-4.23.28a31.48,31.48,0,0,0-3.95.57L579.63,1393Zm18,0q-2-3.1-14.1-16.36T581,1362.34a15.87,15.87,0,0,0-6.21-1,10.08,10.08,0,0,0-5.08,1.13L600.22,1393Zm19.47,0q-29.06-31.59-32.16-31.59c-4.51,0-7.15.47-7.9,1.41q7.62,8.73,15.52,17.77,12.12,13,16.64,13c.75,0,2-.1,3.81-.28S628,1393,629,1393Zm10.43-10.16-33.28-36.66q-1.14,3.94-3.1,11.28l33.56,35A61.41,61.41,0,0,0,639.42,1382.79Zm3.67-15L609.81,1332q-2,7.07-2,8.47,0,2.82,33.28,34.69C641.49,1373.67,642.15,1371.23,643.09,1367.84Zm3.66-13.53q0-2.83-33.56-35.82l-1.41,7.61,33,35v-1.4a6.65,6.65,0,0,1,1-2.68A6.86,6.86,0,0,0,646.75,1354.31Zm18.06-5.93-29.9-31.31h-14.1q28.2,31.32,31,31.31Zm.84-79.82a175,175,0,0,1-20.87,1.13l-22-.28-1.13-2q1.13-11.27,21.72-80.66,3.11,1.68,12.13,37.79Q660.57,1246.57,665.65,1268.56ZM640,1263.77l-9.31-11.28q-1.14,3.94-3.1,11.28Zm19.18.56-24.83-26.51q-1.41,5.36-2.25,8.74,4.78,5.65,9.87,11,7,7.9,11,7.9Zm-2.54-11.28a46.67,46.67,0,0,0-17.77-31.59q-2.54,5.36-2.54,5.64,0,7.05,7.9,14.1Q656.06,1251.92,656.63,1253.05Zm-7.34-29.9-5.92-20.31q-.84,3.67-2.54,11.28Zm33.29,124.67q-22.85-31.3-32.16-31.31h-5.64l-.85,1.69L673,1347.82Zm-4.52-15.23v-1.69l-4.23-14.39h-5.64a7.12,7.12,0,0,0-4.23,1.41Zm56.41,59.79q-7.89-8.46-16.07-17.2-13.26-13.54-15.52-13.54h-8.17l29.61,30.74ZM741,1178.59v-2.26q0-11-13.82-26.8-11-11.57-21.72-23.13.86,5.37,1.7,10.72a28.47,28.47,0,0,0,3.38,9.88,111.29,111.29,0,0,0,14.38,16.36Q732.79,1171,741,1178.59Zm7,25.38q0-9.87-14.1-25.1l-21.44-22v4.79q0,9.31,14.11,23.69,10.71,10.73,21.15,21.16A10.4,10.4,0,0,0,748,1204Zm6.77,189-29.9-31.31h-7.61a7.5,7.5,0,0,0-1.69.28,8.69,8.69,0,0,0-1.7.57q27.64,30.73,30.47,30.74C751.86,1393.23,755.35,1393.13,754.78,1393Zm1.41-154.85v-3.39q0-11.26-13.82-26.51-11.28-11-22.28-22.28V1191q0,9,14.67,24.53Q745.47,1226.82,756.19,1238.1Zm7.62,29.05v-2.26q0-11-13.82-26.23-11-11.55-22-22.84v4.79q0,10.44,13.82,25.11Zm9,125.52q-6.76-7.9-13.82-16.08-9.3-10.44-14.38-14.1-2-1.42-6.49-1.42a17.27,17.27,0,0,0-5.08,1.42q28.77,30.73,30.75,30.74a35.37,35.37,0,0,0,4.51-.56A17.63,17.63,0,0,1,772.83,1392.67Zm-.28-95.62v-1.69q0-10.72-14.38-25.95-11.29-11.57-22.28-22.85v4.51q0,9,14.66,24.54Zm7.34,29.61V1325q0-8.46-5.65-16.92-2-3.1-15.93-17.63t-15.09-14.52a13.48,13.48,0,0,0,.28,4.51q.57,4.52,4.23,10.72,4.8,8.17,15.23,18.33Q778.2,1324.69,779.89,1326.66Zm8.18,29.9v-5.08q0-9.59-15-25.1-11-11.57-22-22.84v5.36q0,10.15,14.66,25.38Q776.79,1345.56,788.07,1356.56Zm3.38,36.39-29.9-31.31h-8.18l-1.41,1.13q1.69,1.13,16.93,18.33,11.55,12.4,18.89,12.41A11.71,11.71,0,0,0,791.45,1393Zm5.08-3.1q-.85-5.37-1.7-10.44-.84-6.21-3.1-9.59-5.07-7.9-15.51-17.77-16.37-15.79-16.92-16.64c.56,3.38,1,6.77,1.41,10.15a28.09,28.09,0,0,0,3.38,9.59q5.08,7.62,15.51,17.77Q796,1389,796.53,1389.85Zm260.33-121.29q0,50.49-32.15,89.13-33.86,41.46-83.21,41.46H851.24l-40-43.15V1118.23l2.26-1.13,129.46,1.13q19.74,0,53.87,31.87,27.65,25.67,43.44,49.36Q1056.86,1224,1056.86,1268.56ZM1022.73,1237q0-39.2-24.54-75-27.08-39.76-65.15-39.77H817.11q0,7.35-.7,21.58t-.71,21V1356H918.65q46.83,0,76.44-36.67Q1022.73,1284.92,1022.73,1237ZM865.06,1393.79l-31.59-31.59H822.19l18,19.18q12.4,13.26,20.31,13.26a10,10,0,0,0,2.12-.42A10,10,0,0,1,865.06,1393.79Zm17.77-.28-15.79-18q-13.26-14.39-15.52-14.39H847c-2.44.19-4,.29-4.79.29l30.46,32.15Zm20.88.28-31.88-32.43H861.11l30.47,32.43Zm18.89-.56q-8.18-8.46-16.36-17.21-13.82-14.38-16.92-14.38h-7.9q10.73,13,27.64,31c1.13.74,3.39,1.12,6.77,1.12A37.54,37.54,0,0,0,922.6,1393.23Zm29.9-153.72q0,22.58-14.67,37t-37.23,14.38a101.68,101.68,0,0,1-10.43-.28q-5.08-1.41-5.08-7.61,0,5.35,2-95.9,1.41.84,7.62.56,10.16-.55,8.46-.56a45.52,45.52,0,0,1,35.26,15.65A53.24,53.24,0,0,1,952.5,1239.51Zm-38.08,43.72-23.13-23.41v11.56q0,1.14,5.22,6.49a61.59,61.59,0,0,0,6.91,6.49,6,6,0,0,0,3.11.56Q912.17,1284.92,914.42,1283.23Zm6.49-43.44V1227.1l-29-31v7.62a45,45,0,0,0,.56,5.92Q897.78,1216.68,920.91,1239.79Zm0,22v-3.1q0-9.59-4.79-16.08l-11.85-11.84A123.54,123.54,0,0,1,891.86,1217v14.1Zm-.85,7.9q-4.23-6.76-13.25-15.8-7.34-7.61-14.95-14.94v12.69l28.77,30.46v-8.18C920.63,1271.67,920.44,1270.25,920.06,1269.69Zm-24,15.23-4.23-4.79v4.79Zm41.74-61.49Q911.33,1193,906.24,1193h-7.89l26.51,30.46ZM941.22,1393q-7.9-9-16.08-18-12.69-13.55-16.64-13.54a21.13,21.13,0,0,0-4.09.56,21.34,21.34,0,0,1-3.81.57l30.75,30.74h4.79A28.3,28.3,0,0,0,941.22,1393Zm18-2q-7.9-8.17-15.51-16.64-13.26-13.53-16.08-13.54a28.36,28.36,0,0,0-8.46,1.41q8.17,8.46,16.64,16.93,13.82,13.81,15.79,13.82A14.83,14.83,0,0,0,959.27,1391Zm-12.13-156.54q-7.89-5.64-16.08-5.64a10.57,10.57,0,0,0-2.11.28,9.77,9.77,0,0,1-1.83.29v49.36Q946.86,1263.48,947.14,1234.43Zm26.8,152.88Q946.87,1358,945.17,1358q-3.1,0-8.75,2.26l28.49,29.9A53.16,53.16,0,0,0,973.94,1387.31Zm13.25-5.64q-3.37-4.8-13.54-15.8-11.83-13.26-13.82-13.26c.19,0-2.35,1.23-7.61,3.67l28.2,28.49C981.93,1384,984.18,1383,987.19,1381.67Zm12.41-7.05q-1.41-2.83-13.25-15.94t-12.7-13.12q-1.41,0-3.94,2.26c-1.7,1.5-3.11,2.26-4.23,2.26q25.1,27.92,28.77,27.92C995.56,1378,997.35,1376.87,999.6,1374.62Zm11-9.31q-16.07-19.47-26.51-27.65l-5.92,5.36,27.36,27.36Zm9.59-10.16-25.94-26.79c-2.26,2.63-4,4.61-5.36,5.92l26,26.23C1016.9,1360.32,1018.69,1358.54,1020.19,1355.15Zm9-11.56-25.39-26.8-5.64,7.34,26.24,27.07A60.79,60.79,0,0,1,1029.22,1343.59Zm7.33-13L1012,1304.38c-.94,1.89-2.44,4.7-4.51,8.46l24,24.54C1032.79,1337.38,1034.48,1335.13,1036.55,1330.61Zm6.21-14.38q0-.57-23.41-26a89.93,89.93,0,0,0-3.67,9l23.69,25.38Q1042.76,1317.36,1042.76,1316.23Zm4.79-15.23-22.28-25.1q-3.1,4.5-3.1,7.61,0,2,10.43,13,9.87,9.87,13.26,12.41Q1046.43,1306.35,1047.55,1301Zm4.52-55q0-7.34-9.88-17.77-7.89-7.62-15.51-15.51a27.21,27.21,0,0,0-.84,5.07q0,8.74,9.58,18,7.9,7.62,15.8,15A23.52,23.52,0,0,0,1052.07,1246Zm-.85,36.1-23.41-25.1a27,27,0,0,0-1.69,7q0,7,8.74,16.08,7.34,6.76,14.39,13.25A46.89,46.89,0,0,1,1051.22,1282.1Zm1.41-13.82q0-7.62-8.74-17.49l-14.67-15.23c-1.32,1.69-2,4.23-2,7.62q0,8.17,9,17.2,7.62,6.76,15.23,13.82Q1052.63,1268.85,1052.63,1268.28ZM1272.35,1334l-1.41,65.15H1107.63q-11.57-10.44-36.39-41.18V1117.38h167l34.13,37.79v62.62q-2,1.41-7.62,1.41-3.37,0-10.43-.7c-4.7-.47-7.72-.71-9-.71l-1.13.28-2.82,2,23.7,26v50.49c.37.19.56,1.12.56,2.82l-.56,8.74h-15Zm-38.64-178.54-1.13-33.29H1077.73l-1.13,233.55h156v-54.16H1144.3V1277.3q0-4.79,2.25-14.66h77.85v-48.8q-1.7,0-19,.85t-28.63.84q-32.43,0-32.15-6.77l.28-18.61q.56-14.1,2.82-14.1l84.34.28A91.06,91.06,0,0,0,1233.71,1155.46Zm-110,238-31.59-32.15h-11.84l29.33,32.15Zm18.9.28-30.74-32.43h-11l30.74,32.43Zm20,.29-30.75-32.72H1120.6l31.59,32.72Zm20.59-.29-30.46-32.43h-12.7l30.75,32.43Zm-12.41-186.15-20-22.57q-.29-1.41-.28,13a32,32,0,0,0,1.41,9.59Zm1.41,88.28-21.16-23.41v23.41Zm23.41-.28q-8.19-9-16.36-17.77-10.44-10.44-20.31-10.44a15.45,15.45,0,0,0-2.4.28,9.36,9.36,0,0,0-2.11.57l15.23,17.49q9.32,11,18.33,11C1187.83,1296.77,1190.36,1296.39,1195.63,1295.64Zm0-88a123.89,123.89,0,0,1-13-13.26q-7.05-8.46-8.46-9.59-4.23-3.11-12.12-3.1h-6.49l24.26,26Zm7.62,186.44-30.75-33q-2.54.57-11.85.29l31.6,32.72Zm12.12-98.16L1188.58,1268H1177.3l26.51,27.92Zm2.26-88.28q-7.62-8.46-15-16.93-9.3-9.59-19.18-9.59a11.15,11.15,0,0,0-4.79,1.42q.27.27,14.38,16.07,9,10.16,17.21,10.15Q1210,1208.76,1217.63,1207.64Zm4.8,186.15-29.9-32.43h-11.29l30.47,32.43Zm11.56-98.15q-7.62-8.75-15.51-17.21-10.15-11-18.34-11a5.34,5.34,0,0,0-3.38,1.41q26.79,27.38,27.64,27.36c.94,0,2.49-.09,4.65-.28S1232.86,1295.64,1234,1295.64Zm9.87-82.08-17.49-18q-13.81-14.38-17.2-14.39a19.27,19.27,0,0,0-4.23.71,19.36,19.36,0,0,1-4.23.71q7.89,9,24,25.1c.38.19,2.26.84,5.64,2a8,8,0,0,1,5.36,4h8.18Zm-1.13,179.67q-6.76-6.76-19.74-20.31-3.95-5.07-8.74-10.72a9.5,9.5,0,0,0-4.24-.84c-.94,0-2.35.09-4.23.28h-4.51l28.49,32.15Q1235.4,1393.22,1242.73,1393.23Zm15-91.67q-9.59-11.85-29.89-32.43a6.75,6.75,0,0,0-4.24-1.13q1.13,0-7.33.28l32.16,33.28Zm6.77-87.72q-7-8.46-14.38-16.64a101.36,101.36,0,0,0-15.23-15,6.91,6.91,0,0,0-3.95-.84c-8.46,0-11.76.09-9.87.28l30.46,32.15Zm-1.69,180-16.92-19.17q-13-13.83-18.62-13.83a52.85,52.85,0,0,0-6.49,1.41l29.9,31.59Zm-3.39-136.51V1248l-28.48-31.31v10.44Q1230.89,1228.8,1259.37,1257.28Zm.29,11.85q0-4.52-12.41-17.49-8.19-8.17-16.36-16.64v10.43q0,2,28.48,30.75Zm0,18.89q0-2.8-12.7-16.92-11-12.4-16.07-16.92v9.3l28.48,31.6Q1259.66,1296.21,1259.66,1288Zm8.18,58.67v-10.44l-29.34-31.58V1316Zm0,10.15q0-2.25-13.26-16.07-11.28-12.4-16.08-16.64v13l29.06,31.31Q1267.83,1368.68,1267.84,1356.84Zm0,18.62q-9.88-8.74-29.34-29.61v11.56l29.06,31.59A67.12,67.12,0,0,1,1267.84,1375.46Zm0-209.29v-10.43l-28.77-30.18v2.26q0,8.46,11,20Q1258.8,1157.16,1267.84,1166.17Zm0,17.77v-2.53q0-7.62-11.29-19.18-8.17-8.46-16.64-16.93c-.56,5.83-.84,8.47-.84,7.9q0,2.54,12.69,15.51Q1263,1180,1267.84,1183.94Zm.56,19.47q0-10.73-11-22.29l-18.33-18.33v15l29.33,31.59Zm264,122.41q0,29-21.3,51.19t-50.35,22.14H1329l-37.23-41.74V1118.23l6.49-1.13h141.59q26.23,0,54.44,33.56,27.35,32.44,27.36,59.23,0,20.31-11.85,35.54-6.21,7-12.13,14.11Q1532.4,1292.25,1532.41,1325.82Zm-34.13-32.16q0-20.29-11-35.82-9-11.83-28.21-24.82l15.23-14.66q14.67-16.65,14.67-41.47,0-19.46-14.1-36.66-15-17.77-34.13-17.77H1296.61v234.1h144.13q23.4,0,40.9-20Q1498.28,1317.36,1498.28,1293.66Zm-156.54,100.42-30.18-31h-10.44l30.18,31h10.44Zm19.18-.29q-6.21-7.61-16.36-18-13.83-13.82-16.93-13.82a26,26,0,0,0-4,.42,24.44,24.44,0,0,1-3.66.43l15.79,18q12.69,13.54,16.08,13.54A53.72,53.72,0,0,0,1360.92,1393.79Zm20,0q-7.9-9.3-16.08-18.33-12.69-13.83-16.64-13.82a31.42,31.42,0,0,0-8.74,1.13q7.89,9,16.08,18,12.69,13.54,16.35,13.54A67.7,67.7,0,0,0,1380.94,1393.79Zm21.15.29-30.46-32.16h-8.46a4.29,4.29,0,0,0-1.55.42,4.19,4.19,0,0,1-1.55.43l30.46,31.31Zm25.39-108.88q0,11-6.77,18.2t-17.77,7.19h-36.38a227.57,227.57,0,0,1-1.41-24.82v-5.08q-.29-4.23-.29-7,0-14.94,7.05-14.67,12.42-.27,36.95.28c.57,0,2.82,1.23,6.77,3.67q7,4.51,9.45,9.17T1427.48,1285.2Zm-9-95.61q0,24-30.74,24l-21.72-.84v-44q2.54-2,23.7-2Q1418.44,1166.74,1418.45,1189.59Zm-18.33,104.92-28.77-29.9q-1.12,5.92-1.13,5.36,0,8.19,10.44,19.18,2.82,3.39,16.92,15.8,1.7,0,1.7-5.93A12.88,12.88,0,0,1,1400.12,1294.51ZM1388.84,1305l-17.77-19.46V1305Zm11.28-98.44v-9.31l-25.95-25.67h-2.82a3.26,3.26,0,0,1,.56,2.26c0,.76-.09,2-.28,3.67s-.28,2.92-.28,3.66q0,1.7,12,14.39T1397,1208.2C1399.09,1208.2,1400.12,1207.64,1400.12,1206.51Zm-13.54,1.13-15.23-17.49v17.49Zm30.46,81.79-14.1-15.79q-9.59-10.73-16.36-10.72a29.91,29.91,0,0,0-7.33,1.69q22.27,24.83,25.67,24.82Zm4,104.93-29.89-32.44h-7.62a5.39,5.39,0,0,0-1.69.42,6,6,0,0,1-1.41.43q7.89,9,16.07,17.77,13.26,14.1,16.08,14.1Q1423.54,1394.64,1421,1394.36Zm-7.61-203.08v-5.08q0-6.48-6.21-10.44a23.82,23.82,0,0,0-13-3.94h-12.13q5.64,6.5,11,13,7.34,7.62,14.1,7.62Q1406.89,1192.41,1413.38,1191.28Zm25.67,202.8-27.37-32.16h-9a5.39,5.39,0,0,0-1.69.42,5.32,5.32,0,0,1-1.69.43l30.74,31.31ZM1423,1286.61a27.37,27.37,0,0,0-5.08-15.23q-5.64-7.34-13.54-7.33,1.7,0-3.1.56Zm-11.29-88.84v-.85l-.28-.56-4.51.84a2.29,2.29,0,0,1-1.41-.84c.19,1.88.47,4.61.85,8.17Q1411.69,1198.89,1411.68,1197.77Zm8.75,97.31h-14.67v9.59h1.69q3.1,0,7.76-3.39C1418.31,1299,1420.05,1297,1420.43,1295.08Zm39.21,99-29.9-32.16h-11.85l31,32.16Zm16.35-2.26q-24.52-30.75-30.18-30.75a10,10,0,0,0-2.82.71,10,10,0,0,1-3.1.71,1.9,1.9,0,0,1-1.69-.85l29.61,32.15A76.71,76.71,0,0,1,1476,1391.82Zm15-6.21-27.07-28.48q-2.83.55-8.75,3.94,25.67,28.22,29.62,28.21C1486.81,1389.28,1488.87,1388.06,1490.94,1385.61Zm8.46-137.08-22.28-24.25-8.74,7.9a61.12,61.12,0,0,1,13.26,10.15q6.19,5.93,12.41,11.56A23.63,23.63,0,0,0,1499.4,1248.53Zm2.26,129.47-26-27.64-6.2,4.51,26.51,27.92C1499.59,1381.85,1501.47,1380.26,1501.66,1378Zm5.64-139.9q0-1.69-9.59-12.13-8.46-8.73-12.41-12.13l-4.51,7.05,22.56,24C1506,1241.11,1507.3,1238.85,1507.3,1238.1Zm4.52,130.87-25.67-27.64-5.36,5.92,26,27.37A43.65,43.65,0,0,0,1511.82,1369Zm2-144.69-22-24c-.75,1.89-1.79,4.71-3.1,8.46l21.15,23.14a7.28,7.28,0,0,0,2.54-3.39A44.54,44.54,0,0,0,1513.79,1224.28Zm5.92,131.72-25.38-26.8q-2.82,5.08-4.52,7.9l26,26.8Zm-5.08-161.34q-4.5-21.42-22.84-37,1.13,4,2.26,7.9,1.4,5.37.56,7.9Q1507.3,1187.05,1514.63,1194.66Zm2,15.52q0-6.78-8.46-15.8-13-13.26-13-13.54c-1.31,5.46-2,8.37-2,8.75q0,5.92,8.74,14.38l13.54,12.41A18,18,0,0,0,1516.61,1210.18Zm8.46,129.74-23.69-26-3.67,10.44,24.54,26.23a7.45,7.45,0,0,0,2-4.79A55.28,55.28,0,0,1,1525.07,1339.92Zm-.56-30.74q-1.14-7.62-9.88-19.75-7.05-8.73-13.82-17.76v5.63q0,7.35,9,17.49Q1517.18,1302.13,1524.51,1309.18Zm2.82,18.33q0-7-9-16.92-6.77-7.33-13.82-14.95c-.38,2.45-.94,6.2-1.69,11.28l24,25.1a12.08,12.08,0,0,1,.29-2.25A12.9,12.9,0,0,0,1527.33,1327.51Zm302.92-49.36q0,49.08-38.07,85t-87.44,36q-34.7,0-72.21-25.38a210.62,210.62,0,0,1-59.51-60.08q-24.54-38.07-24.54-72.77,0-50.78,34.27-87.3t85-36.52q36.95,0,75.87,24.82a207.77,207.77,0,0,1,61.49,60.64Q1830.25,1241.2,1830.25,1278.15Zm-41.46-39.49q0-49.64-35.68-83.34t-85.32-33.71q-46,0-80.25,34.83t-34.27,80.81q0,50.49,35.26,84.06t86,33.56q46.82,0,80.53-34.55T1788.79,1238.66Zm-70.8,1.13a50.58,50.58,0,0,1-13,34.13q-13.55,15.8-32.16,15.8-21.72,0-35-16.36-12.14-15-12.13-37.23,0-17.78,12.55-33.29t30-15.51q22.56,0,36.11,14.81T1718,1239.79Zm-46.53,44.57q-5.09-4.52-8.75-13.26-4.8-11-6.77-14.1a153.79,153.79,0,0,0-12.69-14.39q-8.74-9-12.13-13.25l-1.41,12.41q-.29,2.54,18.9,21.43Q1665.8,1280.12,1671.46,1284.36ZM1659.89,1239l-23.41-26q-3.68,7.05-3.67,8.74,0,2.27,11,13.82,6.78,7.05,13.82,14.1c-.37-.18-.56-.65-.56-1.41a17.52,17.52,0,0,1,1.27-4.93C1659.19,1241,1659.7,1239.51,1659.89,1239Zm22.85,153.15q-10.44-11.28-20.59-22.28-15-15.79-23.13-15.8h-5.93l22,23.7q14.94,15.22,25.38,14.66Zm-15.8-167.26-22.28-22.28-4.8,4.23q3.11,6.21,10.44,13.54,11.85,12.14,11.85,12.41Q1665,1227.94,1666.94,1224.84Zm11-8.18q-18.62-22-20.31-22-2.54,0-7.61,3.95,18.88,22,22.56,22C1673.9,1220.61,1675.69,1219.3,1677.94,1216.66Zm26.23,177.13q-7.61-8.74-15.23-17.2a128.48,128.48,0,0,0-16.08-16.08c-1.12-.94-3.2-1.41-6.2-1.41-.75,0-2,.09-3.67.28h-3.66q7.61,9,15.23,17.77a136.5,136.5,0,0,0,16.08,16.64c.74.57,2.16.85,4.23.85A49.88,49.88,0,0,0,1704.17,1393.79Zm8.46-155.13q0-11-4.23-15.79t-15.23-4.8q-13.82,0-21.86,10.16t-8,24.26q0,9,5.08,18.89,5.93,11.85,13.82,11.85,1.69,0,7-2.82,10.44-5.36,17.21-17.77A50.15,50.15,0,0,0,1712.63,1238.66Zm-20.3-25.94q-.86-1.7-16.93-20.88h-4.23a15.06,15.06,0,0,0-7.33,1.7q1.41.84,11,12.12,6.77,7.9,13,7.9a9.87,9.87,0,0,0,2.4-.42A9.92,9.92,0,0,1,1692.33,1212.72ZM1723.64,1393q-8.75-9.32-17.49-18.62-14.39-15.51-16.64-15.51a39,39,0,0,0-9.31,1.69q10.15,12.12,31,32.72a5.3,5.3,0,0,0,2.83.56A62.69,62.69,0,0,0,1723.64,1393Zm15.51-3.67L1707,1355.15q-3.1.86-8.46,2.82l32.72,33.85Q1734.36,1390.7,1739.15,1389.28Zm14.1-5.36q-9.59-11.85-29.9-33.28a.83.83,0,0,1-.56-.28q-2.82,0-8.74,3.38,30.18,32.43,32.43,32.44C1746.29,1386.18,1748.55,1385.42,1753.25,1383.92Zm13.82-7.05-32.15-33.56-6.77,4.51,31.31,33Q1762,1379.41,1767.07,1376.87Zm10.44-9.31-30.46-31.87-6.49,5.08,31,32.15Q1777.51,1369.55,1777.51,1367.56Zm11-9.3-31.31-31.88-5.08,6.21,31.31,31.87A34.81,34.81,0,0,0,1788.51,1358.26Zm10.15-9.59q-.29,0-31.59-32.72l-4.79,6.48,31.31,32.16Zm8.46-13.26-31-32.44q-1.41,2.82-4.52,8.47,17.78,21.43,31.6,31.3C1804.11,1341.24,1805.43,1338.79,1807.12,1335.41Zm6.77-13-30.18-31.59c-2.44,4.52-3.66,7-3.66,7.34q0,1.41,14.1,15.23,11.56,11.85,16.64,16.36A73,73,0,0,1,1813.89,1322.43Zm3.39-86q-4.52-19.74-35.82-51.62,2.25,4.8,6.48,14.38c.38,2.26.94,4.9,1.7,7.9q3.38,5.92,13,15.24Q1816.43,1235.56,1817.28,1236.41Zm2.54,72.77-30.46-31.88a45.24,45.24,0,0,0-2.83,7.9q9.88,10.72,30.18,31Q1817.84,1313.7,1819.82,1309.18Zm3.1-16.36-29.62-31.59a65.66,65.66,0,0,1-2.54,10.15l30.47,31C1821.6,1300.34,1822.17,1297.15,1822.92,1292.82Zm1.41-30.74q.29-10.15-11.85-24l-20-20v5.64q0,7.07,13.25,20.31Zm0,23.12v-13l-29.62-31.31c.38.19.57.85.57,2a37,37,0,0,1-.43,4.8,38.44,38.44,0,0,0-.42,4.8q0,1.68,13.54,15.79Zm301.51-7q0,49.08-38.07,85t-87.44,36q-34.69,0-72.21-25.38a210.62,210.62,0,0,1-59.51-60.08q-24.54-38.07-24.54-72.77,0-50.78,34.27-87.3t85-36.52q36.94,0,75.87,24.82a207.66,207.66,0,0,1,61.49,60.64Q2125.85,1241.2,2125.84,1278.15Zm-41.46-39.49q0-49.64-35.68-83.34t-85.32-33.71q-46,0-80.24,34.83t-34.27,80.81q0,50.49,35.25,84.06t86,33.56q46.81,0,80.53-34.55T2084.38,1238.66Zm-70.79,1.13a50.59,50.59,0,0,1-13,34.13q-13.53,15.8-32.15,15.8-21.72,0-35-16.36-12.12-15-12.13-37.23,0-17.78,12.56-33.29t30-15.51q22.57,0,36.11,14.81T2013.59,1239.79Zm-46.54,44.57q-5.08-4.52-8.75-13.26-4.8-11-6.76-14.1a155.71,155.71,0,0,0-12.7-14.39q-8.74-9-12.13-13.25l-1.41,12.41q-.29,2.54,18.9,21.43Q1961.41,1280.12,1967.05,1284.36ZM1955.48,1239l-23.41-26q-3.66,7.05-3.67,8.74,0,2.27,11,13.82,6.77,7.05,13.82,14.1-.57-.27-.57-1.41a17.52,17.52,0,0,1,1.27-4.93C1954.78,1241,1955.29,1239.51,1955.48,1239Zm22.85,153.15q-10.44-11.28-20.59-22.28-15-15.79-23.13-15.8h-5.92l22,23.7q14.94,15.22,25.38,14.66Zm-15.8-167.26-22.28-22.28-4.79,4.23q3.09,6.21,10.43,13.54,11.85,12.14,11.85,12.41Q1960.56,1227.94,1962.53,1224.84Zm11-8.18q-18.62-22-20.3-22-2.54,0-7.62,3.95,18.9,22,22.56,22C1969.49,1220.61,1971.28,1219.3,1973.53,1216.66Zm26.24,177.13q-7.62-8.74-15.24-17.2a127.83,127.83,0,0,0-16.07-16.08q-1.7-1.41-6.21-1.41c-.75,0-2,.09-3.66.28h-3.67q7.62,9,15.23,17.77a136.5,136.5,0,0,0,16.08,16.64c.75.57,2.16.85,4.23.85A50,50,0,0,0,1999.77,1393.79Zm8.46-155.13q0-11-4.23-15.79t-15.23-4.8q-13.83,0-21.86,10.16t-8,24.26q0,9,5.07,18.89,5.93,11.85,13.82,11.85,1.7,0,7.06-2.82,10.42-5.36,17.2-17.77A50,50,0,0,0,2008.23,1238.66Zm-20.31-25.94q-.86-1.7-16.92-20.88h-4.23a15.08,15.08,0,0,0-7.34,1.7q1.41.84,11,12.12,6.78,7.9,13,7.9a9.88,9.88,0,0,0,2.39-.42A10,10,0,0,1,1987.92,1212.72ZM2019.23,1393l-17.49-18.62q-14.38-15.51-16.64-15.51a39,39,0,0,0-9.31,1.69q10.15,12.12,31,32.72a5.23,5.23,0,0,0,2.82.56A62.69,62.69,0,0,0,2019.23,1393Zm15.51-3.67-32.15-34.13c-2.08.57-4.89,1.51-8.47,2.82l32.72,33.85Q2029.95,1390.7,2034.74,1389.28Zm14.1-5.36q-9.59-11.85-29.89-33.28a.86.86,0,0,1-.57-.28q-2.82,0-8.74,3.38,30.18,32.43,32.43,32.44C2041.88,1386.18,2044.14,1385.42,2048.84,1383.92Zm13.82-7.05-32.15-33.56-6.77,4.51,31.31,33Q2057.58,1379.41,2062.66,1376.87Zm10.44-9.31-30.46-31.87-6.49,5.08,31,32.15Q2073.11,1369.55,2073.1,1367.56Zm11-9.3-31.31-31.88-5.07,6.21,31.3,31.87A34.37,34.37,0,0,0,2084.1,1358.26Zm10.16-9.59q-.3,0-31.6-32.72l-4.79,6.48,31.31,32.16Zm8.46-13.26-31-32.44q-1.41,2.82-4.51,8.47,17.76,21.43,31.59,31.3C2099.71,1341.24,2101,1338.79,2102.72,1335.41Zm6.77-13-30.18-31.59c-2.45,4.52-3.67,7-3.67,7.34q0,1.41,14.1,15.23,11.57,11.85,16.64,16.36A73.58,73.58,0,0,1,2109.49,1322.43Zm3.38-86q-4.51-19.74-35.82-51.62,2.25,4.8,6.49,14.38c.37,2.26.93,4.9,1.69,7.9q3.39,5.92,13,15.24Q2112,1235.56,2112.87,1236.41Zm2.54,72.77L2085,1277.3a45.34,45.34,0,0,0-2.82,7.9q9.87,10.72,30.18,31Q2113.44,1313.7,2115.41,1309.18Zm3.1-16.36-29.61-31.59a66.83,66.83,0,0,1-2.54,10.15l30.46,31C2117.19,1300.34,2117.76,1297.15,2118.51,1292.82Zm1.41-30.74q.28-10.15-11.84-24-9.89-9.87-20-20v5.64q0,7.07,13.26,20.31Zm0,23.12v-13l-29.62-31.31c.38.19.57.85.57,2a38.44,38.44,0,0,1-.42,4.8,37,37,0,0,0-.43,4.8q0,1.68,13.54,15.79ZM2400,1165.33l-67.41,117.05,66,115.93-1.69.84h-95.62q-13-14.39-26.23-28.77-16.08-17.49-21.72-31.59l-1.13,60.08h-75.59l-36.1-40V1117.94l73.33-.28,35.82,37.23q7.05-13,23.41-37.79,14.38.57,27.37.56,11.83,0,25.24-.42t15.93-.43q13.54,0,22,8.18Q2381.67,1145.3,2400,1165.33Zm-50.2-41.74-75.88.56q-19.46,33.57-59.79,100.13l-2.26-1.13v-99.56H2145v232.13h66.57V1263.2l2.54-1.12q19.17,30.45,54.71,93.07h80.39q-26.8-46-65.15-115.92Zm-159.93,270.2q-8.46-9.87-16.64-19.46-13-14.38-18.34-14.38c-3.38,0-5.73.65-7,2q30.18,32.43,32.16,32.44a39.26,39.26,0,0,0,5.07-.57A20.94,20.94,0,0,1,2189.87,1393.79Zm18.33,0q-8.46-9.3-16.92-18.33-14.39-15.23-16.08-15.23a31.53,31.53,0,0,0-4.23.42,31.53,31.53,0,0,1-4.23.42q9,9.89,18.05,19.47,14.1,14.39,19.46,14.38A7.93,7.93,0,0,0,2208.2,1393.79Zm15.51.29-16.92-18.62q-13.82-15.23-16.92-15.23a28.39,28.39,0,0,0-4.8.84q8.19,9.6,16.36,18.9,13.26,14.38,16.64,14.39c.38,0,1.32-.1,2.83-.28Zm20.31-.29q-8.46-9-16.64-18-13.82-15-16.36-15c-.94,0-2.73.1-5.36.28a24.85,24.85,0,0,1-5.36,0q8.74,9,17.21,18.06,14.38,15.22,16.08,15.23a39.26,39.26,0,0,0,5.07-.57A26.2,26.2,0,0,1,2244,1393.79Zm3.11-27.64v-13.54l-30.75-34.41c-.75,4.9-1.13,7.24-1.13,7.06q0,7.34,13,21.43Q2237.81,1356.28,2247.13,1366.15Zm-9-192.08-20.87-22.56a17.36,17.36,0,0,0-1.69,5.36q0,9.3,18.89,24.25Zm-3.67,132.57-17.2-31.59q-1.7,7.62-1.69,6.21,0,5.91,7.33,13.82Q2228.8,1301,2234.43,1306.64Zm-4.23-119.87-13-15.24q-.86,13.83-.85,11,0,1.68,4.09,6.2a46,46,0,0,0,6.07,5.92Q2230.2,1187.9,2230.2,1186.77Zm-6.77,12.69a17.16,17.16,0,0,0-7-6.21q.57,13,.57,12.41a53.36,53.36,0,0,1-.29,5.36Zm23.42-40-29.62-32.16v15.23q0,2,10.72,13.26,9,9,13.54,13.26A78.78,78.78,0,0,1,2246.85,1159.41Zm.84,173.46q0-4.23-30.46-37.23v15.51l30.18,32.16C2247.59,1344.43,2247.69,1341,2247.69,1332.87Zm-.56,56.41v-13.82l-29.9-34.13V1356Zm71.36,4.8-30.47-33h-9.3a11.78,11.78,0,0,0-2.54.43,11.71,11.71,0,0,1-2.54.42q30.18,32.43,32.44,32.44Q2321.31,1394.36,2318.49,1394.08Zm15.23-125.52-37.8-40q-2,2.82-5.36,8.74,12.14,14.12,38.36,40.9A56.77,56.77,0,0,0,2333.72,1268.56Zm8.18,125.52q-8.19-9.6-16.36-19.46-12.69-14.68-18.05-14.67a28.59,28.59,0,0,0-11,2l30.74,32.16Zm-.29-137.65-38.35-40.9-4.24,7.9,18.62,20.87a187.17,187.17,0,0,0,20,19.47A28.48,28.48,0,0,0,2341.61,1256.43Zm7.62-12.13-38.36-41.74-4.23,8.46,38.93,40.34C2346.31,1249.66,2347.54,1247.32,2349.23,1244.3Zm7.05-13.25q-9.3-10.44-18.9-21.16a241.87,241.87,0,0,0-20.3-19.74l-3.39,6.49q20.59,25.38,39.21,41.46Zm5.36,162.74q-8.74-9.87-17.49-19.46-12.12-13.26-19.74-13.26a37.11,37.11,0,0,0-5.64.85q30.46,32.43,32.43,32.44a39.35,39.35,0,0,0,5.08-.57A26.21,26.21,0,0,1,2361.64,1393.79Zm2.26-174.87L2325,1177.18l-4.23,7.89L2360,1226Q2361.36,1223.72,2363.9,1218.92Zm7.89-13.26-39.48-41.18q-1.42,2.54-4.52,7.62a477.24,477.24,0,0,0,40.06,40.9Zm7.06-12.69-38.93-41.46-4,7.33,38.93,41.46A65.53,65.53,0,0,0,2378.85,1193Zm4.79,200.82q-8.46-9.58-16.64-19.17-13-14.38-17.49-14.39a31.45,31.45,0,0,0-11,1.69q8.19,9,16.36,17.77,13.26,14.38,15.8,14.39,2.25,0,6.48-.29Zm2.82-214.36-38.92-41.18-4.23,8.18,38.64,41.18Zm7.9-13.26q-17.21-18-38.92-40.89-1.43,2.82-4.24,8.74l38.65,40Z"/></svg>